<svg aria-hidden="true" style="position: absolute; width: 0; height: 0; overflow: hidden;" version="1.1" xmlns="http://www.w3.org/2000/svg" xmlns:xlink="http://www.w3.org/1999/xlink">
<defs>
<symbol id="business" viewBox="0 0 32 32">
<path fill="#ff9a62" style="fill: var(--color1, #ff9a62)" d="M26.666 9.333h-5.333v-2.667l-2.667-2.667h-5.333l-2.667 2.667v2.667h-5.333c-1.467 0-2.667 1.2-2.667 2.667v6.667c0 1 0.533 1.84 1.333 2.307v4.36c0 1.48 1.187 2.667 2.667 2.667h18.667c1.48 0 2.667-1.187 2.667-2.667v-4.373c0.787-0.467 1.333-1.32 1.333-2.293v-6.667c0-1.467-1.2-2.667-2.667-2.667zM13.333 6.666h5.333v2.667h-5.333v-2.667zM5.333 12h21.333v6.667h-6.667v-4h-8v4h-6.667v-6.667zM17.333 20h-2.667v-2.667h2.667v2.667zM25.333 25.333h-18.667v-4h5.333v1.333h8v-1.333h5.333v4z"></path>
</symbol>
<symbol id="here" viewBox="0 0 29 32">
<path d=""></path>
</symbol>
<symbol id="facebook" viewBox="0 0 32 32">
<path fill="#1877f2" style="fill: var(--color2, #1877f2)" d="M32 16c0-8.836-7.164-16-16-16s-16 7.163-16 16c0 7.986 5.851 14.605 13.5 15.806v-11.181h-4.062v-4.625h4.062v-3.525c0-4.010 2.389-6.225 6.043-6.225 1.751 0 3.582 0.313 3.582 0.313v3.937h-2.017c-1.988 0-2.608 1.233-2.608 2.499v3.001h4.438l-0.709 4.625h-3.728v11.181c7.649-1.2 13.5-7.819 13.5-15.806z"></path>
<path fill="#fff" style="fill: var(--color3, #fff)" d="M22.227 20.625l0.709-4.625h-4.438v-3.001c0-1.265 0.62-2.499 2.608-2.499h2.018v-3.938c0 0-1.831-0.313-3.582-0.313-3.655 0-6.043 2.215-6.043 6.225v3.525h-4.062v4.625h4.062v11.181c0.827 0.13 1.663 0.195 2.5 0.194s1.673-0.065 2.5-0.194v-11.181h3.728z"></path>
</symbol>
<symbol id="Arrow" viewBox="0 0 6 32">
<path  d="M2.778 31.508c0.149 0.149 0.39 0.149 0.539 0l2.424-2.424c0.149-0.149 0.149-0.39 0-0.539s-0.39-0.149-0.539 0l-2.155 2.155-2.155-2.155c-0.149-0.149-0.39-0.149-0.539 0s-0.149 0.39 0 0.539l2.424 2.424zM2.667 0v31.238h0.762v-31.238h-0.762z"></path>
</symbol>
<symbol id="gmail" viewBox="0 0 43 32">
<path fill="#4285f4" style="fill: var(--color4, #4285f4)" d="M9.697 31.843v-16.4l-5.112-4.653-4.584-2.582v20.74c0 1.601 1.304 2.894 2.909 2.894h6.788z"></path>
<path fill="#34a853" style="fill: var(--color5, #34a853)" d="M32.969 31.843h6.788c1.61 0 2.909-1.297 2.909-2.894v-20.74l-5.193 2.957-4.504 4.277v16.4z"></path>
<path fill="#ea4335" style="fill: var(--color6, #ea4335)" d="M9.697 15.442l-0.696-6.408 0.696-6.133 11.636 8.682 11.636-8.682 0.778 5.802-0.778 6.739-11.636 8.682-11.636-8.682z"></path>
<path fill="#fbbc04" style="fill: var(--color7, #fbbc04)" d="M32.969 2.902v12.541l9.697-7.235v-3.859c0-3.579-4.107-5.619-6.981-3.473l-2.715 2.026z"></path>
<path fill="#c5221f" style="fill: var(--color8, #c5221f)" d="M0 8.208l9.697 7.235v-12.541l-2.715-2.026c-2.88-2.147-6.981-0.106-6.981 3.473v3.859z"></path>
</symbol>
<symbol id="Group" viewBox="0 0 53 32">
<path fill="none" stroke="#ff57a8" style="stroke: var(--color9, #ff57a8)" stroke-linejoin="miter" stroke-linecap="round" stroke-miterlimit="4" stroke-width="1.1034" d="M1.767 8.752c0.164 6.278 0.403 12.556 0.403 18.836 0 2.089 0.941 2.589 2.867 2.898 6.406 1.028 13.467 0.207 19.933 0.207 4.351 0 8.67 0.414 12.99 0.414 2.129 0 14.348 0.821 14.58-0.253 0.561-2.592-0.839-5.628-1.59-8.027-0.992-3.168-1.209-6.226-1.209-9.521 0-2.139 0-4.278 0-6.417 0-2.739-5.775-1.937-7.749-2.070-6.51-0.44-13.091 0.133-19.575-0.713-3.376-0.44-6.761-0.322-10.168-0.322-3.153 0-7.921-0.899-11.064 0.023-1.38 0.405 0.586 6.195 0.985 7.015"></path>
<path fill="none" stroke="#ff57a8" style="stroke: var(--color9, #ff57a8)" stroke-linejoin="miter" stroke-linecap="round" stroke-miterlimit="4" stroke-width="1.1034" d="M33.615 12.064c-3.903 0-8.466 0.741-8.466 5.796 0 1.962-0.154 3.426 0.806 5.152 1.259 2.263 5.979 1.472 8.063 1.472 2.531 0 4.1 0.287 6.137-1.242 1.625-1.22 1.926-4.438 1.926-6.394 0-2.245-4.819-2.443-6.271-3.128-1.479-0.698-2.616-0.828-4.211-0.828"></path>
<path fill="none" stroke="#ff57a8" style="stroke: var(--color9, #ff57a8)" stroke-linejoin="miter" stroke-linecap="round" stroke-miterlimit="4" stroke-width="1.1034" d="M7.411 2.957c0-0.664-0.809-1.695-0.224-1.978 0.725-0.35 2.031-0.092 2.844-0.092 2.736 0 1.008 0.902 1.008 2.898"></path>
</symbol>
<symbol id="headphones" viewBox="0 0 32 32">
<path fill="#16a3f3" style="fill: var(--color10, #16a3f3)" d="M15.326 26.215l-4.191 1.123c-0.576 0.154-1.125 0.081-1.646-0.219s-0.858-0.739-1.011-1.315l-1.965-7.334c-0.351-1.31-0.431-2.603-0.239-3.881s0.597-2.453 1.216-3.526c0.62-1.074 1.436-2.012 2.446-2.816s2.17-1.382 3.481-1.733c1.31-0.351 2.603-0.431 3.881-0.239s2.453 0.597 3.526 1.216c1.074 0.62 2.013 1.436 2.817 2.446s1.382 2.17 1.732 3.481l1.965 7.334c0.154 0.576 0.081 1.125-0.219 1.646s-0.739 0.858-1.315 1.011l-4.191 1.123-2.246-8.382 4.191-1.123-0.281-1.048c-0.547-2.043-1.724-3.586-3.529-4.628s-3.729-1.289-5.771-0.741c-2.043 0.547-3.586 1.724-4.628 3.529s-1.289 3.729-0.741 5.771l0.281 1.048 4.191-1.123 2.246 8.382zM11.546 20.489l-2.096 0.562 1.123 4.191 2.096-0.562-1.123-4.191zM22.024 17.682l1.123 4.191 2.096-0.562-1.123-4.191-2.096 0.562z"></path>
</symbol>
<symbol id="heart" viewBox="0 0 32 32">
<path fill="none" stroke="#f24e1e" style="stroke: var(--color11, #f24e1e)" stroke-linejoin="round" stroke-linecap="round" stroke-miterlimit="4" stroke-width="1.6" d="M4 16c-3-4-2-10 3-12s8 2 9 4c1-2 5-6 10-4s5 8 2 12c-3 4-12 12-12 12s-9-8-12-12z"></path>
</symbol>
<symbol id="instagram" viewBox="0 0 32 32">
<path fill="#000" style="fill: var(--color12, #000)" d="M24.502 0h-17c-4.142 0-7.5 3.358-7.5 7.5v17c0 4.142 3.358 7.5 7.5 7.5h17c4.142 0 7.5-3.358 7.5-7.5v-17c0-4.142-3.358-7.5-7.5-7.5z"></path>
<path fill="#000" style="fill: var(--color12, #000)" d="M24.502 0h-17c-4.142 0-7.5 3.358-7.5 7.5v17c0 4.142 3.358 7.5 7.5 7.5h17c4.142 0 7.5-3.358 7.5-7.5v-17c0-4.142-3.358-7.5-7.5-7.5z"></path>
<path fill="#fff" style="fill: var(--color3, #fff)" d="M16.003 3.5c-3.395 0-3.821 0.015-5.154 0.075-1.331 0.061-2.239 0.272-3.034 0.581-0.822 0.319-1.52 0.746-2.214 1.441s-1.123 1.392-1.443 2.214c-0.31 0.795-0.521 1.704-0.581 3.034-0.060 1.333-0.075 1.76-0.075 5.154s0.015 3.82 0.075 5.153c0.061 1.331 0.272 2.239 0.581 3.034 0.319 0.822 0.747 1.52 1.442 2.214s1.392 1.124 2.214 1.443c0.795 0.309 1.704 0.52 3.034 0.581 1.333 0.061 1.759 0.076 5.154 0.076s3.82-0.015 5.153-0.076c1.331-0.061 2.24-0.272 3.036-0.581 0.822-0.319 1.518-0.747 2.213-1.443s1.122-1.392 1.443-2.214c0.307-0.795 0.518-1.704 0.581-3.034 0.060-1.333 0.076-1.758 0.076-5.153s-0.016-3.821-0.076-5.154c-0.062-1.331-0.274-2.239-0.581-3.034-0.32-0.822-0.747-1.52-1.443-2.215s-1.391-1.122-2.214-1.441c-0.797-0.309-1.706-0.52-3.036-0.581-1.333-0.061-1.758-0.075-5.154-0.075h0.004zM14.881 5.753c0.333-0 0.704 0 1.121 0 3.338 0 3.733 0.012 5.051 0.072 1.219 0.056 1.88 0.259 2.321 0.431 0.583 0.226 0.999 0.497 1.436 0.935s0.708 0.854 0.935 1.438c0.171 0.44 0.375 1.102 0.43 2.32 0.060 1.318 0.073 1.714 0.073 5.050s-0.013 3.732-0.073 5.050c-0.056 1.219-0.259 1.88-0.43 2.32-0.226 0.583-0.498 0.999-0.935 1.436s-0.853 0.708-1.436 0.935c-0.44 0.172-1.102 0.375-2.321 0.431-1.318 0.060-1.714 0.073-5.051 0.073s-3.733-0.013-5.051-0.073c-1.219-0.056-1.88-0.26-2.321-0.431-0.583-0.227-1-0.497-1.437-0.935s-0.708-0.853-0.935-1.437c-0.171-0.44-0.375-1.102-0.431-2.32-0.060-1.318-0.072-1.713-0.072-5.052s0.012-3.732 0.072-5.050c0.056-1.219 0.259-1.88 0.431-2.321 0.227-0.583 0.498-1 0.936-1.437s0.854-0.708 1.438-0.935c0.441-0.172 1.102-0.375 2.321-0.431 1.153-0.052 1.6-0.068 3.93-0.070v0.003zM22.675 7.828c-0.828 0-1.5 0.671-1.5 1.5s0.672 1.5 1.5 1.5c0.828 0 1.5-0.672 1.5-1.5s-0.672-1.5-1.5-1.5v0zM16.003 9.581c-3.545 0-6.419 2.874-6.419 6.419s2.874 6.418 6.419 6.418c3.545 0 6.418-2.873 6.418-6.418s-2.873-6.419-6.419-6.419h0zM16.003 11.834c2.301 0 4.167 1.865 4.167 4.167s-1.866 4.167-4.167 4.167c-2.301 0-4.167-1.866-4.167-4.167s1.865-4.167 4.167-4.167z"></path>
</symbol>
<symbol id="man" viewBox="0 0 26 32">
<path fill="none" stroke="#fff" style="stroke: var(--color3, #fff)" stroke-linejoin="miter" stroke-linecap="round" stroke-miterlimit="4" stroke-width="0.5053" d="M5.367 1.208c-1.927 0.761-3.654 0.738-3.654 2.977 0 1.37 0.432 1.96 1.522 2.808 1.229 0.956 3.103 1.218 4.635 1.218 1.24 0 3.847-0.662 4.635-1.675 1.734-2.23-1.235-4.488-3.113-5.092-1.311-0.421-6.948-2.006-7.68-0.541"></path>
<path fill="none" stroke="#fff" style="stroke: var(--color3, #fff)" stroke-linejoin="miter" stroke-linecap="round" stroke-miterlimit="4" stroke-width="0.5053" d="M8.108 9.734c0 3.696 1.522 7.266 1.522 10.894 0 2.358-1.030 2.81-2.808 4.331-2.246 1.92-4.491 3.876-6.259 6.259-1.655 2.231 4.070-3.825 6.394-5.346 1.246-0.816 5.575-3.808 6.868-2.131 1.402 1.818 2.813 4.222 3.722 6.327 0.836 1.935-0.006-0.546-0.913-1.15"></path>
<path fill="none" stroke="#fff" style="stroke: var(--color3, #fff)" stroke-linejoin="miter" stroke-linecap="round" stroke-miterlimit="4" stroke-width="0.5053" d="M7.803 15.215c-1.785 0.188-3.683 2.106-5.16 3.028-0.76 0.475-3.86 2.284-1.539 0.626"></path>
<path fill="none" stroke="#fff" style="stroke: var(--color3, #fff)" stroke-linejoin="miter" stroke-linecap="round" stroke-miterlimit="4" stroke-width="0.5053" d="M8.383 14.539c1.77 0.109 3.589 0.639 5.341 0.919 1.377 0.22 2.73 0.514 4.091 0.766"></path>
<path fill="none" stroke="#fff" style="stroke: var(--color3, #fff)" stroke-linejoin="miter" stroke-linecap="round" stroke-miterlimit="4" stroke-width="0.5053" d="M4.149 4.253c0 1.451 0.607 2.092 2.131 1.286 1.037-0.549-1.652-1.286-2.131-1.286z"></path>
<path fill="none" stroke="#fff" style="stroke: var(--color3, #fff)" stroke-linejoin="miter" stroke-linecap="round" stroke-miterlimit="4" stroke-width="0.5053" d="M9.63 4.253c-0.878 0-0.886 1.267 0 1.218 1.162-0.065 0.674-0.913-0.305-0.913"></path>
<path fill="none" stroke="#fff" style="stroke: var(--color3, #fff)" stroke-linejoin="miter" stroke-linecap="round" stroke-miterlimit="4" stroke-width="0.5053" d="M7.054 7.189c0.355 0.092 0.741 0.437 1.024 0.091 0.085-0.104 0.129-0.239 0.242-0.314"></path>
</symbol>
<symbol id="ring" viewBox="0 0 32 32">
<path fill="none" stroke="#fff968" style="stroke: var(--color13, #fff968)" stroke-linejoin="miter" stroke-linecap="butt" stroke-miterlimit="4" stroke-width="0.8" d="M31.6 16c0 8.616-6.984 15.6-15.6 15.6s-15.6-6.984-15.6-15.6c0-8.616 6.984-15.6 15.6-15.6s15.6 6.984 15.6 15.6z"></path>
</symbol>
<symbol id="telegram" viewBox="0 0 32 32">
<path fill="#000" style="fill: var(--color12, #000)" d="M16 0c-4.242 0-8.315 1.687-11.313 4.686-3.001 3.001-4.687 7.070-4.688 11.314 0 4.242 1.688 8.314 4.688 11.314 2.998 3 7.070 4.686 11.313 4.686s8.315-1.687 11.312-4.686c3-3 4.688-7.072 4.688-11.314s-1.688-8.314-4.688-11.314c-2.998-2.999-7.070-4.686-11.312-4.686z"></path>
<path fill="#fff" style="fill: var(--color3, #fff)" d="M7.241 15.831c4.665-2.032 7.775-3.372 9.33-4.019 4.445-1.848 5.367-2.169 5.97-2.18 0.132-0.002 0.427 0.031 0.62 0.186 0.16 0.131 0.205 0.309 0.227 0.433 0.020 0.124 0.048 0.408 0.025 0.63-0.24 2.53-1.282 8.67-1.812 11.503-0.223 1.199-0.665 1.601-1.093 1.64-0.93 0.086-1.635-0.614-2.535-1.204-1.408-0.923-2.203-1.498-3.57-2.398-1.58-1.041-0.555-1.613 0.345-2.548 0.235-0.245 4.33-3.968 4.408-4.306 0.010-0.042 0.020-0.2-0.075-0.283-0.093-0.083-0.23-0.055-0.33-0.032-0.143 0.032-2.39 1.519-6.75 4.461-0.637 0.438-1.215 0.652-1.735 0.641-0.57-0.012-1.67-0.323-2.487-0.588-1-0.326-1.798-0.498-1.728-1.051 0.035-0.288 0.433-0.583 1.19-0.884z"></path>
</symbol>
<symbol id="twitter" viewBox="0 0 32 32">
<path fill="#1d9bf0" style="fill: var(--color14, #1d9bf0)" d="M28.722 9.472c0.019 0.282 0.019 0.564 0.019 0.849 0 8.675-6.604 18.68-18.68 18.68v-0.005c-3.567 0.005-7.061-1.017-10.063-2.944 0.519 0.062 1.040 0.094 1.563 0.095 2.957 0.002 5.829-0.989 8.154-2.816-1.37-0.026-2.698-0.479-3.797-1.297s-1.916-1.958-2.336-3.263c0.984 0.19 1.998 0.151 2.964-0.113-3.063-0.619-5.266-3.31-5.266-6.435v-0.083c0.913 0.509 1.935 0.79 2.98 0.822-2.885-1.928-3.774-5.766-2.032-8.766 1.648 2.028 3.705 3.687 6.036 4.869s4.885 1.86 7.495 1.99c-0.26-1.12-0.222-2.289 0.112-3.39s0.95-2.095 1.788-2.882c2.644-2.486 6.803-2.358 9.288 0.285 1.47-0.29 2.88-0.829 4.169-1.594-0.49 1.52-1.516 2.811-2.886 3.631 1.301-0.153 2.572-0.502 3.77-1.034-0.881 1.319-1.99 2.471-3.276 3.401z"></path>
</symbol>
<symbol id="Vector" viewBox="0 0 14 32">
<path fill="none" stroke="#fff" style="stroke: var(--color3, #fff)" stroke-linejoin="miter" stroke-linecap="round" stroke-miterlimit="4" stroke-width="0.4174" d="M14.079 0.224c-0.406 0.353-0.855 0.599-1.268 0.965-1.219 1.081-3.128 2.851-4.193 3.847-1.584 1.48-3.659 3.101-4.944 4.917-0.39 0.551-0.514 1.436-0.689 2.075-0.175 0.643-0.159 0.537-0.303 1.417-0.452 2.765-0.798 5.548-1.158 8.325-0.32 2.473-0.474 4.927-0.474 7.418 0 0.616 0 1.231 0 1.847 0 0.237 0 0.474 0 0.711 0 0.163-0.085-0.399-0.158-0.54-0.151-0.29-0.3-0.569-0.434-0.864-0.106-0.233-0.232-0.389-0.004-0.079 0.3 0.41 0.305 1.061 0.614 1.448 0.091 0.113 0.581-1.126 0.649-1.32 0.107-0.305 0.259-0.762 0.439-1.031"></path>
</symbol>
</defs>
</svg>
